<svg width="22" height="25" viewBox="0 0 22 25" fill="none" xmlns="http://www.w3.org/2000/svg">
<path fill-rule="evenodd" clip-rule="evenodd" d="M21.7 10.7073L11.7 0.905834C11.3111 0.524716 10.6889 0.524716 10.3 0.905834L0.300019 10.7073C0.108129 10.8954 0 11.1527 0 11.4214V23.5013L0.00804008 23.5912C0.0503849 23.8245 0.25454 24.0013 0.5 24.0013L8.5 24.001C8.77613 24.001 8.99998 23.7771 9 23.501V18.0013L9.00509 17.8251C9.09634 16.2503 9.40232 15.0013 11 15.0013L11.1763 15.0064C12.6344 15.0909 12.9558 16.2168 12.9955 17.6515L13 18.0013V23.501C13 23.7771 13.2239 24.001 13.5 24.001L21.5 24.0013L21.5899 23.9933C21.8231 23.9509 22 23.7468 22 23.5013V11.4214C22 11.1527 21.8919 10.8954 21.7 10.7073ZM1.5 11.6315L11 2.32012L20.5 11.6315V22.5013L14.5 22.5011V18.0013L14.4953 17.632C14.4284 15.2019 13.5423 13.641 11.263 13.5089L11.0433 13.502C8.55145 13.5013 7.66187 15.0759 7.5076 17.7383L7.50063 17.958L7.50011 22.5011L1.5 22.5013V11.6315Z" fill="#F9F9F9"/>
</svg>
